<svg width="34" height="34" viewBox="0 0 34 34" fill="none" xmlns="http://www.w3.org/2000/svg">
<path d="M30.8184 1.27588H3.00246C2.04971 1.27588 1.27734 2.04824 1.27734 3.001V30.8169C1.27734 31.7697 2.04971 32.542 3.00246 32.542H30.8184C31.7711 32.542 32.5435 31.7697 32.5435 30.8169V3.001C32.5435 2.04824 31.7711 1.27588 30.8184 1.27588Z" fill="#3D5A98"/>
<path d="M22.8476 32.5393V20.4318H26.9108L27.5184 15.7135H22.8476V12.7018C22.8476 11.3359 23.228 10.4034 25.1856 10.4034H27.6848V6.17642C26.4746 6.05053 25.2584 5.99056 24.0417 5.99678C20.4435 5.99678 17.9655 8.1895 17.9655 12.2342V15.7135H13.9023V20.4318H17.9655V32.5393H22.8476Z" fill="white"/>
</svg>
