<svg width="27" height="22" viewBox="0 0 27 22" fill="none" xmlns="http://www.w3.org/2000/svg">
<path d="M3.03125 8.75C3.32292 8 3.36979 7.33333 3.17188 6.75C2.97396 6.16667 2.63542 5.58333 2.15625 5C1.46875 4.16667 1.01562 3.38021 0.796875 2.64062C0.578125 1.90104 0.541667 1.02083 0.6875 0H3.125C2.95833 0.791667 2.93229 1.4375 3.04688 1.9375C3.16146 2.4375 3.45833 2.97917 3.9375 3.5625C4.72917 4.52083 5.23438 5.36979 5.45312 6.10938C5.67188 6.84896 5.67708 7.72917 5.46875 8.75H3.03125ZM8.03125 8.75C8.32292 8 8.375 7.33333 8.1875 6.75C8 6.16667 7.66667 5.58333 7.1875 5C6.5 4.16667 6.04167 3.38021 5.8125 2.64062C5.58333 1.90104 5.54167 1.02083 5.6875 0H8.125C7.95833 0.791667 7.93229 1.4375 8.04688 1.9375C8.16146 2.4375 8.45833 2.97917 8.9375 3.5625C9.72917 4.52083 10.2344 5.36979 10.4531 6.10938C10.6719 6.84896 10.6771 7.72917 10.4688 8.75H8.03125ZM13.0312 8.75C13.3229 8 13.375 7.33333 13.1875 6.75C13 6.16667 12.6667 5.58333 12.1875 5C11.5 4.16667 11.0417 3.38021 10.8125 2.64062C10.5833 1.90104 10.5417 1.02083 10.6875 0H13.125C12.9583 0.791667 12.9323 1.4375 13.0469 1.9375C13.1615 2.4375 13.4583 2.97917 13.9375 3.5625C14.7292 4.52083 15.2344 5.36979 15.4531 6.10938C15.6719 6.84896 15.6771 7.72917 15.4688 8.75H13.0312ZM3.75 21.25C2.70833 21.25 1.82292 20.8854 1.09375 20.1562C0.364583 19.4271 0 18.5417 0 17.5V11.25H17.5312C17.6354 10.5417 17.9167 9.92188 18.375 9.39062C18.8333 8.85938 19.3958 8.47917 20.0625 8.25L25.8438 6.3125L26.625 8.6875L20.8438 10.625C20.5938 10.7083 20.3906 10.8594 20.2344 11.0781C20.0781 11.2969 20 11.5417 20 11.8125V17.5C20 18.5417 19.6354 19.4271 18.9062 20.1562C18.1771 20.8854 17.2917 21.25 16.25 21.25H3.75ZM3.75 18.75H16.25C16.6042 18.75 16.901 18.6302 17.1406 18.3906C17.3802 18.151 17.5 17.8542 17.5 17.5V13.75H2.5V17.5C2.5 17.8542 2.61979 18.151 2.85938 18.3906C3.09896 18.6302 3.39583 18.75 3.75 18.75Z" fill="white"/>
</svg>
