<svg width="34" height="34" viewBox="0 0 34 34" fill="none" xmlns="http://www.w3.org/2000/svg">
<path d="M25.89 0H7.92552C3.54837 0 0 3.54837 0 7.92552V25.89C0 30.2672 3.54837 33.8155 7.92552 33.8155H25.89C30.2672 33.8155 33.8155 30.2672 33.8155 25.89V7.92552C33.8155 3.54837 30.2672 0 25.89 0Z" fill="url(#paint0_radial_467_6537)"/>
<path d="M25.89 0H7.92552C3.54837 0 0 3.54837 0 7.92552V25.89C0 30.2672 3.54837 33.8155 7.92552 33.8155H25.89C30.2672 33.8155 33.8155 30.2672 33.8155 25.89V7.92552C33.8155 3.54837 30.2672 0 25.89 0Z" fill="url(#paint1_radial_467_6537)"/>
<path d="M16.9096 3.69849C13.3222 3.69849 12.8719 3.71421 11.4631 3.77827C10.0568 3.84273 9.09689 4.06531 8.25705 4.39197C7.38815 4.72933 6.65121 5.18069 5.91704 5.91512C5.18222 6.64942 4.73086 7.38636 4.39244 8.25487C4.06485 9.09497 3.84201 10.0553 3.77874 11.4609C3.71573 12.8699 3.69922 13.3203 3.69922 16.9078C3.69922 20.4953 3.71507 20.9441 3.779 22.353C3.84373 23.7593 4.0663 24.7192 4.3927 25.559C4.73033 26.4279 5.18169 27.1649 5.91612 27.899C6.65015 28.6339 7.38709 29.0863 8.25533 29.4237C9.09584 29.7503 10.0559 29.9729 11.4619 30.0374C12.8709 30.1014 13.3208 30.1171 16.908 30.1171C20.4958 30.1171 20.9446 30.1014 22.3535 30.0374C23.7598 29.9729 24.7207 29.7503 25.5612 29.4237C26.4297 29.0863 27.1656 28.6339 27.8995 27.899C28.6343 27.1649 29.0856 26.4279 29.4241 25.5594C29.7488 24.7192 29.9718 23.759 30.0378 22.3533C30.1011 20.9444 30.1176 20.4953 30.1176 16.9078C30.1176 13.3203 30.1011 12.8702 30.0378 11.4611C29.9718 10.0549 29.7488 9.0951 29.4241 8.25526C29.0856 7.38636 28.6343 6.64942 27.8995 5.91512C27.1648 5.18043 26.43 4.72907 25.5604 4.3921C24.7183 4.06531 23.7579 3.8426 22.3517 3.77827C20.9426 3.71421 20.494 3.69849 16.9055 3.69849H16.9096ZM15.7246 6.07891C16.0764 6.07839 16.4688 6.07891 16.9096 6.07891C20.4366 6.07891 20.8545 6.0916 22.2473 6.15487C23.5352 6.21378 24.2342 6.42896 24.6999 6.60979C25.3163 6.84914 25.7558 7.13539 26.2179 7.59784C26.6802 8.06016 26.9663 8.50042 27.2063 9.1169C27.3871 9.58186 27.6026 10.2809 27.6612 11.5688C27.7245 12.9613 27.7382 13.3795 27.7382 16.9048C27.7382 20.43 27.7245 20.8484 27.6612 22.2408C27.6023 23.5287 27.3871 24.2277 27.2063 24.6928C26.967 25.3093 26.6802 25.7482 26.2179 26.2103C25.7555 26.6726 25.3166 26.9587 24.6999 27.1982C24.2348 27.3798 23.5352 27.5944 22.2473 27.6534C20.8548 27.7166 20.4366 27.7304 16.9096 27.7304C13.3825 27.7304 12.9644 27.7166 11.572 27.6534C10.2841 27.5939 9.5851 27.3787 9.11908 27.1979C8.50274 26.9584 8.06235 26.6723 7.60003 26.21C7.1377 25.7477 6.85159 25.3085 6.61158 24.6917C6.43075 24.2266 6.21531 23.5276 6.15666 22.2397C6.09339 20.8472 6.0807 20.429 6.0807 16.9015C6.0807 13.374 6.09339 12.958 6.15666 11.5655C6.21557 10.2776 6.43075 9.57856 6.61158 9.11293C6.85106 8.49646 7.1377 8.0562 7.60016 7.59388C8.06261 7.13156 8.50274 6.84531 9.11922 6.60543C9.58484 6.42381 10.2841 6.20916 11.572 6.14998C12.7906 6.0949 13.2628 6.07839 15.7246 6.07561V6.07891ZM23.9607 8.27217C23.0856 8.27217 22.3756 8.9815 22.3756 9.85674C22.3756 10.7319 23.0856 11.4418 23.9607 11.4418C24.8358 11.4418 25.5458 10.7319 25.5458 9.85674C25.5458 8.98164 24.8358 8.27164 23.9607 8.27164V8.27217ZM16.9096 10.1242C13.1635 10.1242 10.1262 13.1616 10.1262 16.9078C10.1262 20.6541 13.1635 23.6899 16.9096 23.6899C20.6559 23.6899 23.6921 20.6541 23.6921 16.9078C23.6921 13.1617 20.6556 10.1242 16.9093 10.1242H16.9096ZM16.9096 12.5047C19.3413 12.5047 21.3128 14.4759 21.3128 16.9078C21.3128 19.3395 19.3413 21.311 16.9096 21.311C14.4779 21.311 12.5066 19.3395 12.5066 16.9078C12.5066 14.4759 14.4778 12.5047 16.9096 12.5047Z" fill="white"/>
<defs>
<radialGradient id="paint0_radial_467_6537" cx="0" cy="0" r="1" gradientUnits="userSpaceOnUse" gradientTransform="translate(8.98225 36.42) rotate(-90) scale(33.5137 31.1704)">
<stop stop-color="#FFDD55"/>
<stop offset="0.1" stop-color="#FFDD55"/>
<stop offset="0.5" stop-color="#FF543E"/>
<stop offset="1" stop-color="#C837AB"/>
</radialGradient>
<radialGradient id="paint1_radial_467_6537" cx="0" cy="0" r="1" gradientUnits="userSpaceOnUse" gradientTransform="translate(-5.66421 2.43599) rotate(78.68) scale(14.9808 61.7514)">
<stop stop-color="#3771C8"/>
<stop offset="0.128" stop-color="#3771C8"/>
<stop offset="1" stop-color="#6600FF" stop-opacity="0"/>
</radialGradient>
</defs>
</svg>
