<svg width="247" height="230" viewBox="0 0 247 230" fill="none" xmlns="http://www.w3.org/2000/svg">
<path d="M123.399 196.678C70.5442 196.678 27.6968 194.346 27.6968 191.47C27.6968 188.595 70.5442 186.263 123.399 186.263C176.254 186.263 219.102 188.595 219.102 191.47C219.102 194.346 176.254 196.678 123.399 196.678Z" fill="#F5F5F5"/>
<path d="M177.826 191.47H179.801" stroke="#EB0029" stroke-linecap="round" stroke-linejoin="round"/>
<path d="M183.533 191.47H233.953" stroke="#EB0029" stroke-linecap="round" stroke-linejoin="round" stroke-dasharray="7.57 7.57"/>
<path d="M235.819 191.47H237.793" stroke="#EB0029" stroke-linecap="round" stroke-linejoin="round"/>
<path d="M60.3404 81.3607L117.293 82.2408L116.611 120.558L59.6586 119.678L60.3404 81.3607Z" fill="#A61E30"/>
<path opacity="0.3" d="M82.9185 81.7049L117.352 82.237L116.67 120.554L82.2367 120.022L82.9185 81.7049Z" fill="white"/>
<path opacity="0.3" d="M77.7283 84.2867L87.6445 84.4716L87.5892 87.0476L77.673 86.8627L77.7283 84.2867Z" fill="white"/>
<path opacity="0.3" d="M77.4328 114.083L87.3477 114.236L87.3018 116.812L77.3869 116.659L77.4328 114.083Z" fill="white"/>
<path d="M70.8251 105.887C67.6111 105.887 65.0056 103.14 65.0056 99.751C65.0056 96.362 67.6111 93.6146 70.8251 93.6146C74.0391 93.6146 76.6445 96.362 76.6445 99.751C76.6445 103.14 74.0391 105.887 70.8251 105.887Z" stroke="white" stroke-miterlimit="10"/>
<path d="M70.582 94.5484V95.5788" stroke="white" stroke-linecap="round" stroke-linejoin="round"/>
<path d="M70.3281 103.988V105.018" stroke="white" stroke-linecap="round" stroke-linejoin="round"/>
<path d="M75.7305 99.5486H74.6199" stroke="white" stroke-linecap="round" stroke-linejoin="round"/>
<path d="M66.8164 99.5532H65.7059" stroke="white" stroke-linecap="round" stroke-linejoin="round"/>
<path d="M70.5859 99.5486L70.5814 96.3746" stroke="white" stroke-width="0.5" stroke-linecap="round" stroke-linejoin="round"/>
<path d="M70.3711 99.7556L67.9624 102" stroke="white" stroke-width="0.5" stroke-linecap="round" stroke-linejoin="round"/>
<path d="M70.049 99.5532C70.049 99.6524 70.0806 99.7494 70.1397 99.8318C70.1988 99.9143 70.2828 99.9785 70.3811 100.016C70.4794 100.054 70.5876 100.064 70.692 100.045C70.7963 100.026 70.8922 99.9779 70.9674 99.9078C71.0427 99.8377 71.0939 99.7483 71.1147 99.6511C71.1354 99.5538 71.1248 99.453 71.084 99.3614C71.0433 99.2697 70.9744 99.1914 70.8859 99.1363C70.7974 99.0812 70.6934 99.0518 70.587 99.0518C70.5162 99.0512 70.4459 99.0638 70.3803 99.0888C70.3148 99.1137 70.2552 99.1506 70.2051 99.1973C70.155 99.244 70.1154 99.2995 70.0886 99.3606C70.0618 99.4217 70.0484 99.4872 70.049 99.5532Z" fill="white"/>
<path opacity="0.3" d="M70.8224 107.511C66.5671 107.511 63.1174 104.037 63.1174 99.751C63.1174 95.4652 66.5671 91.9908 70.8224 91.9908C75.0777 91.9908 78.5273 95.4652 78.5273 99.751C78.5273 104.037 75.0777 107.511 70.8224 107.511Z" fill="white"/>
<path d="M134.812 167.049C133.954 167.661 116.713 165.931 121.17 137.425C121.17 137.425 112.991 139.362 112.112 139.233C112.112 139.233 100.113 156.377 108.85 164.869C117.586 173.36 130.607 173.88 130.607 173.88L134.812 167.049Z" fill="#EB0029"/>
<path opacity="0.3" d="M134.812 167.049C133.954 167.661 116.713 165.931 121.17 137.425C121.17 137.425 112.991 139.362 112.112 139.233C112.112 139.233 100.113 156.377 108.85 164.869C117.586 173.36 130.607 173.88 130.607 173.88L134.812 167.049Z" fill="#A61E30"/>
<path d="M115.707 141.836C115.662 141.836 120.524 141.924 122.153 140.038C123.782 138.152 124.883 134.78 121.921 132.48C118.959 130.18 101.57 120.244 93.3815 119.462C85.1929 118.68 76.4267 123.602 76.4267 123.602L87.1475 130.99L110.233 136.197L115.707 141.836Z" fill="#263238"/>
<path d="M131.426 162.559L130.977 166.681L125.666 166.262L126.465 162.026L131.426 162.559Z" fill="#FFC3BD"/>
<path d="M132.459 166.382L124.754 166.281L124.206 169.906C124.206 169.906 131.423 169.998 134.389 169.63C137.356 169.262 136.892 167.822 136.892 167.822C136.892 167.822 133.417 167.9 132.459 166.382Z" fill="#263238"/>
<path d="M65.2191 176.815C64.0687 166.278 70.8947 157 80.4654 156.093C90.0361 155.185 98.7274 162.991 99.8778 173.528C101.028 184.065 94.2023 193.343 84.6316 194.25C75.0609 195.158 66.3696 187.352 65.2191 176.815Z" fill="#263238"/>
<path d="M94.6533 116.513C94.6533 116.513 93.8537 133.612 104.525 134.099C115.197 134.587 126.663 133.497 126.663 133.497L123.301 164.22L133.306 164.795C133.306 164.795 140.488 138.731 141.618 132.181C142.749 125.631 141.767 120.998 134.348 118.091C126.929 115.184 94.6533 116.513 94.6533 116.513Z" fill="#EB0029"/>
<path d="M154.375 170.761L141.082 134.78L123.313 116.5C123.313 116.5 138.822 116.555 146.275 120.548C153.728 124.54 154.004 129.338 155.372 135.047C156.739 140.755 162.223 167.776 162.223 167.776L154.375 170.761Z" fill="#EB0029"/>
<path opacity="0.7" d="M94.655 116.513C94.655 116.513 111.171 115.828 123.283 116.513C123.283 116.513 138.792 116.569 146.245 120.561C153.698 124.554 154.004 129.338 155.372 135.047C156.739 140.755 162.223 167.776 162.223 167.776L154.375 170.761L141.082 134.78C138.846 144.753 133.308 164.777 133.308 164.777L123.303 164.22L126.669 133.515C126.669 133.515 115.208 134.605 104.532 134.118C93.8554 133.63 94.655 116.513 94.655 116.513Z" fill="#A61E30"/>
<path d="M121.922 88.78L128.057 89.4746C128.057 89.4746 129.123 99.9856 130.115 102.028C130.115 102.028 148.985 104.443 156.715 104.236L160.639 106.72L160.777 111.039L156.932 111.145L155.693 108.408C155.693 108.408 153.097 108.302 152.495 106.941C152.495 106.941 132.445 111.453 125.061 106.301C125.051 106.306 120.599 100.211 121.922 88.78Z" fill="#FFC3BD"/>
<path d="M104.337 60.6326C104.337 60.6326 102.417 62.9326 103.147 64.9244C103.349 65.4925 103.704 66.0025 104.179 66.4054C104.653 66.8082 105.231 67.0903 105.857 67.2244C105.857 67.2244 106.217 70.4122 108.236 70.5042C110.255 70.5962 109.579 63.48 109.579 63.48L104.337 60.6326Z" fill="#263238"/>
<path d="M119.881 116.592L121.228 96.0434L129.59 90.8638C129.59 90.8638 126.855 81.88 121.623 80.3574C116.391 78.8348 104.979 75.3434 98.0592 77.0776C91.1391 78.8118 91.9338 86.4202 93.1233 92.0644L94.456 92.3588C94.456 92.3588 94.6633 114.6 94.6732 116.513L119.881 116.592Z" fill="#F2E6C1"/>
<path d="M104.836 78.3472C107.576 80.8174 113.163 82.2894 114.708 81.0612C116.253 79.833 114.303 78.706 112.852 77.3168C112.067 76.5532 112.092 75.1226 112.275 73.9818C112.371 73.407 112.513 72.8396 112.699 72.2844C117.828 72.0222 119.955 69.7866 120.167 65.8444C120.379 61.9022 118.464 57.3252 118.464 57.3252L114.841 54.4456C114.841 54.4456 109.905 55.1356 105.957 57.6656C103.607 59.156 104.303 62.0908 105.276 64.2574C105.687 65.1797 106.183 66.0676 106.756 66.9116C107.309 72.3074 104.836 78.3472 104.836 78.3472Z" fill="#FFC3BD"/>
<path d="M117.316 66.93C117.316 66.93 115.342 67.0174 114.478 65.8766" stroke="#263238" stroke-linecap="round" stroke-linejoin="round"/>
<path d="M114.17 62.2749C114.17 62.6245 114.397 62.9005 114.664 62.8959C114.93 62.8913 115.123 62.6015 115.113 62.2519C115.103 61.9023 114.886 61.6263 114.619 61.6309C114.353 61.6355 114.155 61.9253 114.17 62.2749Z" fill="#263238"/>
<path d="M118.67 62.3853C118.67 62.7349 118.897 63.0109 119.164 63.0063C119.43 63.0017 119.623 62.7119 119.613 62.3623C119.603 62.0127 119.386 61.7367 119.119 61.7413C118.853 61.7459 118.655 62.0403 118.67 62.3853Z" fill="#263238"/>
<path d="M117.109 65.2419L117.312 62.4221L118.758 65.0993C118.532 65.2781 118.253 65.3877 117.958 65.4132C117.663 65.4387 117.366 65.3789 117.109 65.2419Z" fill="#ED847E"/>
<path d="M114.406 60.0668C114.028 59.9699 113.624 60.0013 113.268 60.1554C112.912 60.3096 112.626 60.5765 112.462 60.9086" stroke="#263238" stroke-linecap="round" stroke-linejoin="round"/>
<path d="M120.062 60.5866C120.062 60.5866 119.154 59.6666 118.088 59.9012" stroke="#263238" stroke-linecap="round" stroke-linejoin="round"/>
<path d="M105.242 64.2574C110.888 64.446 111.589 58.4798 111.589 58.4798C114.383 59.8598 118.445 57.3298 118.445 57.3298L114.822 54.441C114.822 54.441 109.886 55.1402 105.938 57.661C103.573 59.156 104.269 62.1 105.242 64.2574Z" fill="#263238"/>
<path d="M120.261 59.0779C120.261 59.0779 123.183 57.2655 121.895 55.9591C120.607 54.6526 112.714 57.1367 106.816 60.1819C106.816 60.1819 120.325 51.7592 123.998 54.4226C127.033 56.626 120.301 59.6851 120.503 59.6805L120.261 59.0779Z" fill="#EB0029"/>
<path d="M103.781 58.4614C103.789 59.4153 103.983 60.3598 104.353 61.249L117.621 55.269C117.071 54.6775 116.413 54.1821 115.676 53.8062C114.891 53.3876 114.037 53.0924 113.149 52.9322C112.207 52.7644 111.243 52.7334 110.291 52.8402C105.439 53.36 103.756 56.8376 103.781 58.4614Z" fill="#A61E30"/>
<path d="M162.536 119.356C162.536 119.356 177.521 138.676 165.181 168.415" stroke="#263238" stroke-linecap="round" stroke-linejoin="round"/>
<path d="M142.76 129.393C142.76 129.393 142.76 129.43 142.76 129.504C142.76 129.577 142.76 129.619 142.76 129.702V129.748C142.939 131.608 143.269 133.454 143.748 135.268C144.429 137.949 145.332 140.502 146.077 142.554C149.236 151.271 148.871 160.664 148.871 160.664C149.918 159.45 151.833 158.585 154.227 157.978C162.943 155.747 177.741 156.943 177.741 156.943C180.644 147.453 179.607 132.6 176.72 124.283C173.832 115.966 165.826 117.843 165.826 117.843C165.826 117.843 157.376 118.073 156.314 117.967C154.372 117.747 152.406 117.785 150.475 118.077C143.95 119.191 142.38 123.998 142.76 129.393Z" fill="#A61E30"/>
<path d="M77.6985 165.6C92.5062 178.057 121.09 179.363 142.359 177.983L154.274 158.005L159.102 149.914L143.593 130.433L142.774 129.407C142.774 129.407 142.774 129.444 142.774 129.518C142.774 129.591 142.774 129.633 142.774 129.715V129.761C142.986 133.234 144.358 161.106 133.395 167.941L133.306 168.001C131.823 168.895 130.102 169.385 128.336 169.418C108.222 169.961 108.785 145.498 113.898 140.259L78.9967 133.722C78.9967 133.722 72.1061 149.891 77.6985 165.6Z" fill="#A61E30"/>
<path d="M116.522 134.955C116.522 134.955 119.794 137.485 118.106 140.88C116.418 144.274 100.144 137.683 93.7376 136.482C87.3308 135.281 79.917 134.108 76.7284 133.497C73.5398 132.885 73.8162 124.361 76.4224 123.607C79.0286 122.852 104.557 127.057 108.792 129.366C111.589 130.949 114.182 132.824 116.522 134.955Z" fill="#263238"/>
<path d="M108.326 66.3642C108.638 66.0517 108.826 65.6501 108.861 65.2249C108.896 64.7996 108.776 64.3759 108.519 64.0228C107.729 62.9188 106.135 61.1662 104.605 62.4772C102.462 64.3172 106.12 67.6614 107.635 66.8518C107.889 66.7204 108.122 66.5563 108.326 66.3642Z" fill="#FFC3BD"/>
<path opacity="0.2" d="M120.26 59.0779C120.26 59.0779 123.182 57.2655 121.894 55.9591C121.321 55.3794 119.608 55.499 117.293 56.1154C115.805 56.4889 114.347 56.9609 112.93 57.5277C110.896 58.3511 108.735 59.4045 106.814 60.1819C106.814 60.1819 120.324 51.7592 123.996 54.4226C127.032 56.626 120.719 59.4827 120.497 59.6759L120.388 59.3033L120.26 59.0779Z" fill="#A61E30"/>
<path d="M118.875 58.2913C118.875 58.2913 121.836 58.7513 119.793 61.7229L118.875 58.2913Z" fill="#263238"/>
<path d="M116.036 56.4788C116.036 56.4788 120.503 55.016 121.747 55.844C122.991 56.672 121.688 58.2498 120.266 59.064L119.126 59.202L118.455 57.316L116.717 57.1182L116.036 56.4788Z" fill="#263238"/>
<path opacity="0.3" d="M109.95 54.2294L111.021 55.706L115.676 53.82C114.891 53.4015 114.037 53.1062 113.149 52.946L109.95 54.2294Z" fill="white"/>
<path opacity="0.1" d="M110.986 71.8796C111.294 72.6431 111.736 73.3535 112.294 73.9818C112.39 73.407 112.532 72.8397 112.719 72.2844C112.12 72.2455 111.534 72.1084 110.986 71.8796Z" fill="black"/>
<path d="M155.237 112.332C155.435 115.52 156.915 118.128 158.732 118.772C159.046 118.885 159.383 118.933 159.719 118.915C161.96 118.795 163.589 115.662 163.362 111.923C163.135 108.183 161.131 105.248 158.89 105.368C157.977 105.414 157.172 105.961 156.545 106.84C155.622 108.1 155.104 110.115 155.237 112.332Z" fill="#F5F5F5"/>
<path d="M155.236 112.332C155.434 115.52 156.915 118.128 158.731 118.772C160.804 118.662 162.309 115.768 162.097 112.332C161.885 108.896 160.039 106.168 157.966 106.278C157.432 106.316 156.926 106.518 156.53 106.853C155.621 108.1 155.103 110.115 155.236 112.332Z" fill="white"/>
<path d="M75.242 157.518C79.0575 155.02 93.8208 152.568 93.8208 152.568C102.789 152.568 110.662 160.089 111.748 170.076C112.636 178.199 108.786 185.573 102.582 188.936C102.582 188.936 102.064 189.138 101.195 189.456C97.9077 190.665 89.566 193.596 84.635 194.24" fill="#263238"/>
<path opacity="0.3" d="M65.2191 176.815C64.0687 166.278 70.8947 157 80.4654 156.093C90.0361 155.185 98.7274 162.991 99.8778 173.528C101.028 184.065 94.2023 193.343 84.6316 194.25C75.0609 195.158 66.3696 187.352 65.2191 176.815Z" fill="black"/>
<path d="M141.95 176.202C140.799 165.665 147.625 156.387 157.196 155.479C166.767 154.572 175.458 162.378 176.608 172.915C177.759 183.452 170.933 192.73 161.362 193.637C151.791 194.545 143.1 186.739 141.95 176.202Z" fill="#263238"/>
<path d="M148.634 158.994L157.46 193.527C158.747 193.721 160.057 193.757 161.354 193.632H161.453C163.146 193.228 162.391 193.665 164.089 193.14C168.408 191.811 174.681 189.46 174.681 189.46C181.33 186.447 185.086 179.119 184.173 170.747C183.067 160.604 175.259 153.028 166.068 153.649C166.068 153.649 161.705 154.399 157.213 155.489C155.239 155.949 153.264 156.497 151.64 157.067C150.565 157.604 149.557 158.251 148.634 158.994Z" fill="#263238"/>
<path opacity="0.3" d="M141.948 176.18C142.935 185.265 149.535 192.317 157.467 193.508C158.754 193.703 160.064 193.738 161.361 193.614H161.46C163.267 193.432 165.023 192.944 166.643 192.174C173.311 189.023 177.531 181.369 176.608 172.905C175.458 162.375 166.786 154.578 157.22 155.471H157.195C155.253 155.654 153.368 156.19 151.647 157.049C150.572 157.587 149.564 158.235 148.641 158.981C143.918 162.808 141.168 169.229 141.948 176.18Z" fill="black"/>
<path d="M144.354 164.082C144.643 163.652 144.973 163.247 145.341 162.872C147.547 160.066 152.592 159.017 155.894 159.266C158.425 159.496 160.856 160.308 162.967 161.63C165.376 163.084 167.098 165.31 169.487 166.837C174.018 169.754 180.894 169.671 185.445 166.667C185.702 166.497 185.946 166.311 186.176 166.111C186.639 165.661 186.949 165.092 187.064 164.478C187.238 163.71 187.175 162.913 186.881 162.178C185.894 159.592 182.602 157.32 180.524 155.935C176.311 153.165 171.356 151.539 166.21 151.239C151.535 150.296 145.277 161.975 144.354 164.082Z" fill="#A61E30"/>
<path opacity="0.3" d="M145.371 164.45C148.525 160.209 152.572 159.017 155.874 159.266C158.406 159.496 160.836 160.308 162.947 161.63C165.356 163.084 167.079 165.31 169.468 166.837C173.999 169.754 180.875 169.671 185.426 166.667C185.682 166.497 185.926 166.311 186.156 166.111C186.62 165.661 186.929 165.092 187.045 164.478C187.219 163.71 187.155 162.913 186.862 162.178C185.337 163.82 180.894 167.776 174.877 165.858C167.375 163.443 165.544 156.267 157.523 156.331C151.151 156.4 147.227 161 145.371 164.45Z" fill="black"/>
<g opacity="0.3">
<path opacity="0.3" d="M178.375 154.67C176.235 153.253 173.827 152.224 171.277 151.639C168.725 151.034 166.082 150.832 163.459 151.041C160.839 151.276 158.274 151.884 155.852 152.844L154.954 153.212L154.076 153.622C153.483 153.879 152.925 154.201 152.353 154.496C151.78 154.79 151.252 155.153 150.704 155.48C150.156 155.807 149.643 156.188 149.12 156.552C151.272 155.208 153.57 154.078 155.976 153.18C158.377 152.282 160.906 151.72 163.483 151.51C166.055 151.281 168.649 151.436 171.169 151.97C172.433 152.231 173.673 152.588 174.875 153.037C176.096 153.475 177.268 154.022 178.375 154.67Z" fill="black"/>
</g>
<g opacity="0.3">
<path opacity="0.3" d="M162.393 151.381C163.008 149.463 163.378 147.484 163.493 145.484C163.656 143.492 163.691 141.491 163.646 139.504C163.602 137.517 163.454 135.511 163.256 133.524L162.896 130.553C162.738 129.564 162.6 128.575 162.402 127.59L162.852 133.57L163.029 136.551C163.059 137.545 163.123 138.538 163.128 139.532C163.212 141.519 163.172 143.506 163.093 145.512C163.059 146.505 162.975 147.494 162.866 148.483C162.78 149.458 162.621 150.427 162.393 151.381Z" fill="black"/>
</g>
<path opacity="0.3" d="M133.419 167.9C143.725 161.722 144.135 145.783 143.785 135.268C143.721 133.46 143.642 131.818 143.582 130.405C143.474 128.992 143.474 127.573 143.582 126.16C144.624 118.938 150.547 118.068 150.547 118.068H150.522C143.962 119.191 142.393 123.998 142.773 129.393C142.773 129.393 142.773 129.43 142.773 129.504C142.773 129.577 142.773 129.619 142.773 129.702V129.748C142.995 133.221 144.367 161.092 133.419 167.9Z" fill="black"/>
<path opacity="0.2" d="M134.259 113.464C135.123 114.305 146.293 112.148 148.242 113.114C149.067 113.519 149.427 114.954 150.256 116.527C152.586 119.977 155.864 120.52 156.066 120.548C152.157 117.788 151.066 111.145 153.006 106.945C154.945 102.746 161.89 103.836 162.285 103.96C161.101 103.475 159.827 103.208 158.534 103.173C154.778 102.989 150.197 103.974 148.914 106.191C146.308 110.713 135.133 109.696 134.106 110.883C133.079 112.07 133.395 112.622 134.259 113.464Z" fill="black"/>
<path d="M143.005 109.448C143.684 110.616 143.955 111.952 143.78 113.27L134.318 114.264C133.834 113.742 133.477 113.13 133.27 112.468C133.063 111.806 133.011 111.11 133.119 110.428C133.119 110.428 142.492 109.549 143.005 109.448Z" fill="#263238"/>
<path d="M171.739 109.121C171.739 109.121 172.682 107.254 171.552 106.071C174.079 105.86 175.644 105.611 177.272 105.391C177.514 106.076 177.633 106.734 176.779 107.778C175.925 108.822 171.739 109.121 171.739 109.121Z" fill="#263238"/>
<path d="M176.996 120.81C178.635 123.298 180.037 127.282 180.16 133.644" stroke="#EB0029" stroke-linecap="round" stroke-linejoin="round"/>
<path d="M171.6 116.707C172.792 116.964 173.888 117.516 174.773 118.303" stroke="#EB0029" stroke-linecap="round" stroke-linejoin="round"/>
<path d="M97.9926 92.7269L104.222 93.4353C104.222 93.4353 105.308 104.103 106.315 106.177C106.315 106.177 125.471 108.634 133.324 108.417L137.307 110.938L137.445 115.327L133.541 115.432L132.282 112.672C132.282 112.672 129.647 112.567 129.039 111.182C129.039 111.182 108.684 115.782 101.186 110.538C101.191 110.52 96.6648 104.333 97.9926 92.7269Z" fill="#FFC3BD"/>
<path opacity="0.2" d="M148.714 174.8C148.891 180.587 152.959 185.168 157.801 185.04C158.451 185.021 159.096 184.918 159.716 184.731C163.595 183.581 166.389 179.317 166.236 174.326C166.083 169.496 163.225 165.503 159.469 164.395C158.719 164.17 157.932 164.066 157.144 164.087C152.302 164.22 148.531 169.032 148.714 174.8Z" fill="#FAFAFA"/>
<path d="M153.171 174.8C153.324 179.74 156.132 183.802 159.716 184.745C163.595 183.595 166.389 179.331 166.236 174.34C166.083 169.51 163.225 165.517 159.469 164.409C155.738 165.352 153.018 169.685 153.171 174.8Z" fill="#263238"/>
<path opacity="0.2" d="M72.6586 175.26C72.8413 181.047 76.9084 185.633 81.7456 185.5C82.3967 185.484 83.0418 185.38 83.6608 185.191C87.5453 184.041 90.3391 179.782 90.1811 174.786C90.033 169.961 87.1751 165.963 83.4189 164.855C82.6684 164.63 81.8822 164.526 81.0941 164.547C76.252 164.68 72.4809 169.482 72.6586 175.26Z" fill="#FAFAFA"/>
<path d="M77.1158 175.26C77.2737 180.196 80.0773 184.258 83.6608 185.201C87.5453 184.051 90.3391 179.791 90.1811 174.795C90.033 169.97 87.1752 165.973 83.4189 164.864C79.6824 165.807 76.9578 170.14 77.1158 175.26Z" fill="#263238"/>
<path d="M65.0304 160.016C64.9465 165.706 74.2408 169.473 89.7939 171.847C93.9863 172.534 98.2707 172.58 102.479 171.985C109.389 170.922 112.766 168.199 112.766 168.199C112.766 168.199 111.008 148.534 93.6192 146.041C81.773 144.348 72.8588 148.801 68.3375 153.599C66.2101 155.853 65.0551 158.194 65.0304 160.016Z" fill="#EB0029"/>
<path opacity="0.3" d="M65.0278 160.016C64.9439 165.706 74.2382 169.473 89.7913 171.847C93.9837 172.534 98.2681 172.58 102.477 171.985C101.731 166.644 98.3847 152.637 83.8386 151.184C77.2393 150.521 72.1454 151.763 68.3349 153.599C66.2075 155.853 65.0525 158.194 65.0278 160.016Z" fill="#A61E30"/>
<g opacity="0.3">
<path opacity="0.3" d="M111.758 168.286C111.438 165.61 110.753 162.982 109.719 160.466C108.703 157.925 107.3 155.533 105.553 153.364C104.671 152.286 103.679 151.289 102.592 150.388C101.514 149.472 100.327 148.675 99.0528 148.014C96.5176 146.682 93.7082 145.865 90.8098 145.618C92.2301 145.839 93.6272 146.175 94.9856 146.62C95.6717 146.814 96.3183 147.113 96.9599 147.366C97.6038 147.653 98.2315 147.971 98.8405 148.318C99.4624 148.649 100.035 149.049 100.622 149.422C101.21 149.794 101.753 150.236 102.271 150.701C103.325 151.593 104.285 152.577 105.139 153.64C106.873 155.767 108.286 158.106 109.339 160.591C109.886 161.828 110.357 163.094 110.751 164.381C111.17 165.663 111.506 166.967 111.758 168.286Z" fill="#A61E30"/>
</g>
<path d="M135.094 161.791L134.067 165.039L123.302 164.202L123.159 159.661L135.094 161.791Z" fill="#A61E30"/>
<path d="M71 139.642L47.3126 138.745" stroke="#EB0029" stroke-linecap="round" stroke-linejoin="round"/>
<path d="M39.4844 134.725L35.9651 134.591" stroke="#EB0029" stroke-linecap="round" stroke-linejoin="round"/>
<path d="M59.6484 135.488L42.1852 134.826" stroke="#EB0029" stroke-linecap="round" stroke-linejoin="round"/>
<path d="M47.4258 146.915L32.7908 146.363" stroke="#EB0029" stroke-linecap="round" stroke-linejoin="round"/>
<path d="M56.4727 147.26L50.0954 147.016" stroke="#EB0029" stroke-linecap="round" stroke-linejoin="round"/>
</svg>
