<svg width="247" height="230" viewBox="0 0 247 230" fill="none" xmlns="http://www.w3.org/2000/svg">
<path d="M123.398 196.678C176.253 196.678 219.1 194.346 219.1 191.47C219.1 188.595 176.253 186.263 123.398 186.263C70.5427 186.263 27.6953 188.595 27.6953 191.47C27.6953 194.346 70.5427 196.678 123.398 196.678Z" fill="#F5F5F5"/>
<path d="M95.4556 55.039C91.6105 57.9922 87.8543 62.7532 90.0557 67.919C92.2571 73.0848 106.344 73.6046 109.306 71.4794C113.156 68.7194 109.755 56.4282 106.754 56.3546C106.527 51.796 98.6688 52.5688 95.4556 55.039Z" fill="#263238"/>
<path d="M90.0703 104.788C90.0703 104.788 91.6153 130.98 93.3181 145.162C93.4909 158.479 96.7733 188.563 96.7733 188.563H100.381C100.989 173.636 105.446 159.698 102.484 146.533C109.394 120.681 104.661 104.806 104.661 104.806L90.0703 104.788Z" fill="#FFB573"/>
<path d="M94 104.806C94 104.806 101.429 133.86 103.462 146.234C105.604 159.234 108.793 184.46 108.645 188.554H111.759C111.759 188.554 116.991 163.033 112.149 146.694C116.143 109.894 106.29 104.834 106.29 104.834L94 104.806Z" fill="#FFB573"/>
<path d="M76.1868 71.2034C75.9548 69.6348 72.8649 69.5014 72.8649 69.5014L71.3842 68.8068C71.1242 68.6585 70.8126 68.6101 70.5151 68.6719C70.2177 68.7337 69.9576 68.9009 69.7899 69.138L69.2963 69.9016C69.1525 70.2022 69.1287 70.5407 69.2292 70.8561C69.3296 71.1716 69.5477 71.4432 69.8442 71.622L70.2933 71.9256C71.0575 72.4346 71.9616 72.7298 72.8995 72.7766L74.2667 72.8456C74.567 72.8617 74.8679 72.8274 75.1552 72.7444C75.4954 72.6447 75.7855 72.4339 75.9723 72.1508C76.1591 71.8677 76.23 71.5313 76.172 71.2034H76.1868Z" fill="#FFB573"/>
<path d="M92.4616 80.3804C92.274 80.5598 92.1753 80.6472 92.0371 80.7622L91.6472 81.0842C91.3905 81.2866 91.124 81.4752 90.8624 81.6638C90.3293 82.0318 89.7863 82.3722 89.2286 82.6942C88.1093 83.322 86.9334 83.8576 85.7142 84.295C83.2861 85.1753 80.7082 85.6427 78.103 85.675H77.876C77.757 85.6726 77.6383 85.6634 77.5206 85.6474C77.2888 85.6158 77.0618 85.5586 76.8444 85.4772C76.4784 85.3366 76.1436 85.1338 75.8572 84.8792C75.4862 84.5396 75.1837 84.1407 74.9638 83.7016C74.6559 83.0796 74.4257 82.4267 74.2777 81.7558C74.016 80.6011 73.8509 79.4291 73.7841 78.2506C73.6505 75.9933 73.7 73.7297 73.9322 71.4794C73.9597 71.2279 74.0854 70.9946 74.2855 70.8238C74.4856 70.6531 74.746 70.5569 75.0172 70.5535C75.2885 70.5501 75.5516 70.6397 75.7565 70.8054C75.9615 70.971 76.0939 71.2011 76.1287 71.4518V71.4794C76.3952 73.623 76.7012 75.7988 77.1159 77.8826C77.2986 78.8918 77.5509 79.889 77.871 80.868C77.9985 81.2684 78.174 81.6542 78.3943 82.018C78.4831 82.1514 78.5719 82.2158 78.5325 82.1698C78.4671 82.1039 78.3859 82.0534 78.2955 82.0226C78.2155 81.9887 78.1308 81.9655 78.0438 81.9536H77.9105C78.9716 81.8633 80.0242 81.7003 81.0596 81.466C82.0857 81.2272 83.092 80.9197 84.0706 80.546C85.0451 80.1572 85.9843 79.6957 86.8791 79.166C87.3282 78.9084 87.7626 78.637 88.1822 78.3472C88.3895 78.2046 88.5869 78.0574 88.7843 77.9102L89.0706 77.6894L89.2878 77.51L89.4161 77.4042C89.8466 77.0449 90.4106 76.8565 90.9879 76.8791C91.5653 76.9018 92.1103 77.1337 92.5068 77.5254C92.9034 77.9172 93.12 78.4378 93.1106 78.9762C93.1013 79.5147 92.8666 80.0284 92.4567 80.408L92.4616 80.3804Z" fill="#FFB573"/>
<path d="M94.8863 75.2744C90.982 74.6672 86.8852 77.142 84.7627 79.1568C83.667 82.2296 87.1764 85.9648 87.1764 85.9648C87.1764 85.9648 92.1765 83.1036 93.9781 81.1486C95.7797 79.1936 97.1371 75.624 94.8863 75.2744Z" fill="#F2E6C1"/>
<path d="M106.979 104.457C106.979 104.457 112.488 108.1 113.524 120.212C113.939 124.982 114.684 144.012 116.254 152.2C110.602 155.963 93.682 155.448 91.0314 153.249C91.7816 136.689 84.9898 114.724 89.9159 104.622C98.07 103.689 106.979 104.457 106.979 104.457Z" fill="#263238"/>
<path opacity="0.2" d="M101.396 139.191C101.47 132.232 100.369 122.654 97.0273 116.978C98.1675 124.062 101.396 139.191 101.396 139.191Z" fill="black"/>
<path d="M87.3319 80.8864C87.3319 84.8286 83.9607 86.8986 87.7762 89.9346C88.0032 93.3386 88.2697 99.4336 89.3902 104.986C90.5501 106.49 99.03 106.366 107.841 104.586C106.691 99.8246 107.115 92.069 110.131 81.4614C110.292 80.8727 110.32 80.2595 110.215 79.66C110.109 79.0606 109.872 78.488 109.518 77.978C109.164 77.468 108.701 77.0316 108.157 76.6962C107.614 76.3608 107.002 76.1336 106.36 76.0288C105.634 75.9092 104.879 75.7988 104.079 75.7068C101.324 75.3282 98.5428 75.1345 95.7575 75.1272C94.8592 75.1272 93.9263 75.1824 93.0378 75.2376C91.4943 75.3265 90.0452 75.9601 88.9852 77.0095C87.9252 78.0589 87.334 79.4452 87.3319 80.8864Z" fill="#F2E6C1"/>
<path d="M105.33 87.731L94.9898 89.9134C94.5963 89.9964 94.3496 90.361 94.4387 90.7277L97.7866 104.505C97.8758 104.872 98.267 105.102 98.6605 105.019L109.001 102.837C109.394 102.754 109.641 102.389 109.552 102.022L106.204 88.2446C106.115 87.8779 105.724 87.648 105.33 87.731Z" fill="#A61E30"/>
<path d="M96.7797 80.2102C96.7797 80.2102 95.1064 82.0778 93.7244 82.5102L93.5664 83.4302C95.314 83.2222 96.9271 82.4469 98.1222 81.2406L96.7797 80.2102Z" fill="#A61E30"/>
<path d="M92.2327 79.0832C92.2327 79.0832 92.1636 81.512 92.8843 82.6988L92.3462 83.49C91.1827 82.2559 90.5222 80.6796 90.4805 79.0372L92.2327 79.0832Z" fill="#A61E30"/>
<path d="M103.737 66.9576C103.075 69.4048 102.3 73.9174 104.077 75.6976C104.077 75.6976 97.4584 77.3812 93.1444 82.9012C91.17 77.1006 95.7752 75.118 95.7752 75.118C98.791 74.658 98.8305 72.6064 98.4159 70.6376L103.737 66.9576Z" fill="#FFB573"/>
<path opacity="0.2" d="M101.571 68.4618L98.4219 70.6468C98.5237 71.1012 98.5831 71.5629 98.5996 72.0268C99.7447 71.9532 101.374 70.8998 101.561 69.8004C101.648 69.3581 101.651 68.9052 101.571 68.4618Z" fill="black"/>
<path d="M106.809 62.5968C105.541 66.562 105.096 68.2686 102.426 69.828C98.4081 72.1694 93.5413 69.759 93.5117 65.4994C93.5117 61.663 95.57 55.8394 100.146 55.2046C104.721 54.5698 108.097 58.627 106.809 62.5968Z" fill="#FFB573"/>
<path d="M103.49 56.8054C102.291 60.628 103.317 64.6254 105.765 65.0854C109.166 63.9032 108.998 60.3842 108.13 58.7742C107.261 57.1642 104.181 54.602 103.49 56.8054Z" fill="#263238"/>
<path d="M105.353 63.6732C103.463 64.2574 103.098 65.4396 103.098 65.4396C103.098 65.4396 104.396 64.584 105.64 64.745C105.459 64.4122 105.361 64.0459 105.353 63.6732Z" fill="#263238"/>
<path d="M100.627 62.2242C100.543 62.5508 100.292 62.7716 100.06 62.721C99.8276 62.6704 99.7042 62.353 99.7881 62.0264C99.872 61.6998 100.124 61.4744 100.356 61.5296C100.588 61.5848 100.691 61.8976 100.627 62.2242Z" fill="#263238"/>
<path d="M96.2522 61.2536C96.1683 61.5802 95.9166 61.801 95.6846 61.7458C95.4526 61.6906 95.3292 61.3824 95.4131 61.0512C95.497 60.72 95.7487 60.5038 95.9807 60.559C96.2127 60.6142 96.3411 60.9224 96.2522 61.2536Z" fill="#263238"/>
<path d="M96.0876 60.6004L95.293 60.1726C95.293 60.1726 95.5743 60.8902 96.0876 60.6004Z" fill="#263238"/>
<path d="M97.0798 61.7872C96.578 62.4608 95.9764 63.0648 95.293 63.5812C95.443 63.7433 95.6286 63.8735 95.8372 63.9632C96.0458 64.0528 96.2726 64.0998 96.5023 64.101L97.0798 61.7872Z" fill="#ED893E"/>
<path d="M106.832 66.5758C106.57 66.8618 106.246 67.092 105.88 67.2507C105.515 67.4095 105.117 67.4931 104.714 67.4958C103.682 67.4682 103.505 66.3642 104.072 65.458C104.566 64.6392 105.731 63.6686 106.629 64.1332C107.528 64.5978 107.532 65.8306 106.832 66.5758Z" fill="#FFB573"/>
<path d="M101.452 60.8166C101.399 60.792 101.358 60.7491 101.339 60.697C101.26 60.4564 101.122 60.236 100.938 60.0526C100.753 59.8692 100.525 59.7277 100.273 59.639C100.218 59.6249 100.172 59.5916 100.143 59.546C100.114 59.5005 100.106 59.4464 100.12 59.3952C100.126 59.3699 100.138 59.3461 100.154 59.3253C100.171 59.3045 100.192 59.287 100.216 59.2741C100.24 59.2611 100.267 59.2529 100.294 59.25C100.322 59.2471 100.35 59.2496 100.376 59.2572C100.699 59.362 100.991 59.536 101.229 59.7654C101.466 59.9947 101.643 60.2728 101.744 60.5774C101.754 60.6018 101.758 60.6278 101.757 60.6539C101.755 60.68 101.748 60.7055 101.735 60.7288C101.723 60.7522 101.705 60.7728 101.684 60.7895C101.662 60.8062 101.637 60.8186 101.61 60.8258C101.558 60.8413 101.502 60.838 101.452 60.8166Z" fill="#263238"/>
<path d="M94.6629 59.294C94.6068 59.2957 94.5522 59.2776 94.5099 59.2434C94.471 59.2057 94.4492 59.1554 94.4492 59.1031C94.4492 59.0508 94.471 59.0005 94.5099 58.9628C94.7299 58.7256 95.0082 58.5416 95.321 58.4262C95.6339 58.3109 95.972 58.2677 96.3065 58.3004C96.3629 58.3094 96.4133 58.3384 96.4474 58.3812C96.4814 58.4241 96.4964 58.4775 96.4892 58.5304C96.4807 58.5822 96.4504 58.6288 96.405 58.6599C96.3597 58.6909 96.3029 58.7039 96.2473 58.696C95.9825 58.6714 95.7152 58.7071 95.4684 58.8001C95.2217 58.893 95.0028 59.0404 94.8307 59.2296C94.8094 59.251 94.7833 59.2678 94.7544 59.2789C94.7254 59.29 94.6942 59.2952 94.6629 59.294Z" fill="#263238"/>
<path d="M100.455 61.5756L99.6602 61.1432C99.6602 61.1432 99.9415 61.8654 100.455 61.5756Z" fill="#263238"/>
<path d="M100.199 94.2356L96.25 93.5226L96.6942 97.75C96.6942 97.75 99.6558 97.6304 101.344 96.37L101.502 95.818C101.319 94.9026 101.097 94.5668 100.199 94.2356Z" fill="#FFB573"/>
<path d="M93.8783 95.3258L94.3374 97.1152C94.4045 97.3722 94.5724 97.5964 94.8082 97.7437C95.0439 97.891 95.3302 97.9507 95.6108 97.911L96.7165 97.75L96.2722 93.5226L94.5891 94.093C94.3292 94.1817 94.1133 94.3563 93.9823 94.5835C93.8513 94.8107 93.8143 95.0748 93.8783 95.3258Z" fill="#FFB573"/>
<path d="M109.029 79.12C110.229 81.2614 111.276 83.4742 112.163 85.744C112.608 86.8802 113.027 88.044 113.363 89.2354C113.729 90.4698 113.977 91.7321 114.103 93.0074C114.133 93.3432 114.148 93.6882 114.153 94.0378V94.162V94.3598C114.141 94.4953 114.114 94.6294 114.074 94.76C114.001 95.0136 113.888 95.2555 113.738 95.4776C113.509 95.8082 113.21 96.0916 112.859 96.3102C112.43 96.5763 111.957 96.7737 111.458 96.8944C111.08 96.9917 110.696 97.067 110.308 97.1198C108.962 97.2775 107.605 97.3252 106.25 97.2624C103.683 97.152 101.127 96.866 98.6045 96.4068C98.3313 96.3646 98.0851 96.228 97.9151 96.0242C97.7452 95.8203 97.664 95.5643 97.6876 95.3071C97.7113 95.0499 97.8381 94.8105 98.0429 94.6366C98.2476 94.4627 98.5151 94.3672 98.7921 94.369C101.26 94.3276 103.758 94.2678 106.161 94.0976C107.312 94.0233 108.456 93.8695 109.582 93.6376C109.812 93.588 110.038 93.5235 110.258 93.4444C110.367 93.4162 110.468 93.366 110.554 93.2972C110.46 93.3494 110.381 93.424 110.327 93.5134C110.262 93.6103 110.212 93.7157 110.179 93.8262C110.162 93.8882 110.149 93.9512 110.14 94.0148C110.137 94.0454 110.137 94.0762 110.14 94.1068C110.14 93.8722 110.095 93.6468 110.056 93.3892C109.624 91.2572 108.951 89.174 108.047 87.1746C107.154 85.1 106.132 82.9886 105.085 80.9968V80.96C104.873 80.4786 104.863 79.9405 105.058 79.4526C105.252 78.9648 105.637 78.5632 106.135 78.3277C106.633 78.0922 107.208 78.0401 107.745 78.1818C108.282 78.3235 108.742 78.6486 109.034 79.0924L109.029 79.12Z" fill="#FFB573"/>
<path d="M106.617 76.1714C109.445 76.659 110.704 79.028 112.757 83.7568C112.13 86.94 107.11 88.6144 107.11 88.6144C107.11 88.6144 104.228 83.8534 103.655 81.328C103.083 78.8026 103.764 75.6792 106.617 76.1714Z" fill="#F2E6C1"/>
<path d="M100.637 188.6C100.614 188.539 100.569 188.487 100.51 188.452C100.451 188.418 100.381 188.404 100.311 188.411L96.9648 188.365C96.6223 188.344 96.2803 188.413 95.9776 188.563C94.4456 189.455 92.7248 190.028 90.9331 190.242C90.2223 190.343 90.5431 191.461 92.2214 191.48C94.9904 191.507 95.4939 191.314 97.8582 191.337C99.877 191.36 98.9144 191.443 100.519 191.48C100.904 191.48 101.22 191.254 101.17 191.02L100.637 188.6Z" fill="#263238"/>
<path d="M112.185 188.6C112.161 188.539 112.116 188.488 112.057 188.453C111.998 188.419 111.929 188.404 111.859 188.411L109.13 188.365C108.787 188.343 108.445 188.411 108.143 188.563C107.155 189.203 107.294 189.943 105.043 190.242C104.332 190.343 104.683 191.461 106.361 191.48C109.13 191.507 108.962 191.337 110.087 191.337C111.213 191.337 110.522 191.443 112.131 191.48C112.516 191.48 112.827 191.254 112.768 191.02L112.185 188.6Z" fill="#263238"/>
<path d="M94.957 80.9186C96.3588 80.9738 98.9304 82.0456 99.7547 83.191C100.92 82.064 105.471 79.4466 105.549 75.9C104.992 75.4008 104.291 75.0649 103.531 74.934C103.531 74.934 97.4595 77.671 94.957 80.9186Z" fill="#F2E6C1"/>
<path d="M92.6883 80.7346C92.6883 80.7346 92.3083 77.8688 96.0299 75.0858C95.6548 74.8006 94.1839 75.1226 94.1839 75.1226C94.1839 75.1226 89.8354 76.866 89.9637 81.3786C90.7474 80.8416 91.7248 80.6106 92.6883 80.7346Z" fill="#F2E6C1"/>
<path d="M92.1348 81.949C91.5968 82.1836 91.3845 83.8166 92.1348 84.1984C92.885 84.5802 92.811 83.0208 93.2453 82.4872C93.6797 81.9536 93.0775 81.5396 92.1348 81.949Z" fill="#A61E30"/>
<path d="M92.7963 82.5838C92.4113 83.0438 92.9098 84.6078 93.7391 84.6032C94.5683 84.5986 93.8526 83.2232 94.0155 82.5424C94.1784 81.8616 93.4528 81.7742 92.7963 82.5838Z" fill="#A61E30"/>
<path d="M92.9078 83.7476C91.9848 82.4182 91.9206 89.424 94.1566 92.184C94.0085 89.4654 95.5732 85.6106 92.9078 83.7476Z" fill="#A61E30"/>
<path d="M92.8241 83.6878C92.4144 82.3354 90.3561 88.2602 91.4963 91.1536C92.143 88.8122 94.5566 85.9234 92.8241 83.6878Z" fill="#A61E30"/>
<path d="M99.7069 65.366C99.922 65.2787 100.128 65.174 100.324 65.0532C100.335 65.0429 100.344 65.0307 100.35 65.0173C100.356 65.0039 100.359 64.9895 100.359 64.975C100.359 64.9604 100.356 64.946 100.35 64.9326C100.344 64.9192 100.335 64.907 100.324 64.8968C100.303 64.8723 100.274 64.8559 100.241 64.8508C100.208 64.8456 100.174 64.8522 100.146 64.8692C99.706 65.1442 99.2053 65.3238 98.6808 65.3947C98.1563 65.4655 97.6214 65.4259 97.1155 65.2786C97.1006 65.2725 97.0846 65.2692 97.0683 65.2689C97.0521 65.2686 97.0359 65.2713 97.0207 65.2769C97.0056 65.2824 96.9918 65.2907 96.9801 65.3013C96.9684 65.3118 96.9591 65.3244 96.9527 65.3384C96.9415 65.367 96.9431 65.3986 96.957 65.4262C96.9709 65.4538 96.9959 65.4752 97.0267 65.4856C97.9054 65.755 98.8599 65.7124 99.7069 65.366Z" fill="#263238"/>
<path d="M85.3816 68.609H60.1641V69.3726H85.3816V68.609Z" fill="#A61E30"/>
<path d="M84.7788 69.3726H60.7656L61.8219 69.9062H83.7225L84.7788 69.3726Z" fill="#EB0029"/>
<path opacity="0.2" d="M84.7788 69.3726H60.7656L61.8219 69.9062H83.7225L84.7788 69.3726Z" fill="black"/>
<path d="M68.2452 48.1528C68.0977 48.1516 67.9566 48.0965 67.8523 47.9992C67.748 47.902 67.6888 47.7705 67.6875 47.633V45.8896C67.6888 45.7521 67.748 45.6206 67.8523 45.5234C67.9566 45.4262 68.0977 45.371 68.2452 45.3698C68.3928 45.371 68.5339 45.4262 68.6382 45.5234C68.7425 45.6206 68.8017 45.7521 68.803 45.8896V47.633C68.8017 47.7705 68.7425 47.902 68.6382 47.9992C68.5339 48.0965 68.3928 48.1516 68.2452 48.1528Z" fill="#263238"/>
<path d="M69.1406 45.7838V45.5538C69.1406 45.3302 68.9462 45.149 68.7063 45.149H67.7783C67.5384 45.149 67.3439 45.3302 67.3439 45.5538V45.7838C67.3439 46.0073 67.5384 46.1886 67.7783 46.1886H68.7063C68.9462 46.1886 69.1406 46.0073 69.1406 45.7838Z" fill="#263238"/>
<path d="M69.1374 51.9386V46.966C69.1374 46.9119 69.1147 46.8599 69.0741 46.8212C69.0335 46.7825 68.9782 46.7602 68.9202 46.759H67.5678C67.5097 46.7602 67.4545 46.7825 67.4139 46.8212C67.3733 46.8599 67.3506 46.9119 67.3506 46.966V51.9386C67.3507 52.3123 67.2659 52.6818 67.1017 53.0227C66.9375 53.3637 66.6977 53.6683 66.3979 53.9166C66.0993 54.1667 65.8602 54.4723 65.6962 54.8138C65.5321 55.1553 65.4466 55.525 65.4453 55.8992V68.655H71.0377V55.8992C71.0373 55.5249 70.9523 55.1549 70.7881 54.8132C70.624 54.4716 70.3844 54.1661 70.0851 53.9166C69.7867 53.6675 69.5481 53.3626 69.3848 53.0218C69.2215 52.6809 69.1372 52.3118 69.1374 51.9386Z" fill="#A61E30"/>
<path d="M71.0397 57.408H67.3477V65.6558H71.0397V57.408Z" fill="#E0E0E0"/>
<path d="M76.2796 68.609H75.6133C75.8352 68.6229 76.0578 68.6229 76.2796 68.609Z" fill="#EB0029"/>
<path d="M80.3041 68.609H79.6328C79.8563 68.6229 80.0806 68.6229 80.3041 68.609Z" fill="#EB0029"/>
<path opacity="0.2" d="M75.3867 58.88V60.973C75.3867 62.6382 76.4035 64.0228 77.6918 64.193V67.873C77.6918 68.4388 77.0995 68.5998 76.6404 68.6366H79.2713C78.8122 68.5998 78.2199 68.4388 78.2199 67.873V64.193C79.5082 64.0274 80.525 62.6428 80.525 60.973V58.88H75.3867Z" fill="#EB0029"/>
<path d="M105.969 56.9112C103.995 57.6932 97.3804 57.9324 94.7891 57.408C97.4693 53.8798 103.491 52.8448 105.969 56.9112Z" fill="#263238"/>
<path d="M112.193 69.5152C112.174 69.5148 112.155 69.5105 112.138 69.5026C112.121 69.4946 112.106 69.4832 112.094 69.4692C112.03 69.3864 110.574 67.39 110.544 62.0448C110.544 59.8138 109.809 58.0198 108.57 57.1136C108.248 56.8657 107.868 56.6916 107.461 56.6054C107.054 56.5191 106.631 56.523 106.225 56.6168C106.209 56.6201 106.193 56.6205 106.177 56.6179C106.161 56.6153 106.146 56.6098 106.132 56.6017C106.118 56.5936 106.106 56.583 106.097 56.5706C106.087 56.5582 106.081 56.5442 106.077 56.5294C106.074 56.5146 106.073 56.4993 106.076 56.4843C106.079 56.4694 106.085 56.4551 106.093 56.4423C106.102 56.4295 106.113 56.4184 106.127 56.4097C106.14 56.4009 106.155 56.3947 106.171 56.3914C106.611 56.2937 107.07 56.2914 107.512 56.3847C107.953 56.478 108.366 56.6644 108.718 56.9296C110.026 57.8818 110.781 59.7448 110.796 62.0402C110.826 67.3026 112.277 69.3174 112.277 69.3358C112.286 69.3482 112.293 69.3621 112.297 69.3769C112.3 69.3917 112.301 69.4071 112.298 69.422C112.295 69.437 112.289 69.4513 112.281 69.4642C112.272 69.477 112.26 69.4881 112.247 69.4968C112.231 69.5064 112.212 69.5127 112.193 69.5152Z" fill="#263238"/>
<path d="M147.713 42.435C149.09 44.1922 149.085 46.9292 148.616 48.415C146.148 47.3708 146.533 44.3716 146.533 44.3716L147.713 42.435Z" fill="#263238"/>
<path d="M155.092 64.1839L156.514 65.6421L157.995 67.1233C158.982 68.1031 159.969 69.0599 160.986 69.9799C161.479 70.4399 161.973 70.8999 162.501 71.3047C163.029 71.7095 163.488 72.1419 164.006 72.5145C164.525 72.8871 164.994 73.2183 165.453 73.5035C165.798 73.7195 166.161 73.9102 166.539 74.0739L165.783 73.9635C165.559 73.9383 165.333 73.9854 165.142 74.0969C165.142 74.0969 165.26 74.0969 165.428 74.0049C165.886 73.7432 166.312 73.4346 166.697 73.0849C167.707 72.1899 168.652 71.2324 169.525 70.2191C170.468 69.1657 171.386 68.0433 172.299 66.9071C173.212 65.7709 174.125 64.6071 175.023 63.4617L175.068 63.4111C175.383 63.0242 175.833 62.7524 176.34 62.643C176.848 62.5336 177.38 62.5936 177.845 62.8124C178.31 63.0313 178.678 63.3952 178.885 63.8408C179.092 64.2864 179.124 64.7854 178.977 65.2511C178.477 66.7049 177.899 68.1342 177.245 69.5337C176.598 70.9137 175.882 72.2937 175.073 73.6737C174.233 75.1089 173.262 76.474 172.17 77.7539C171.519 78.5104 170.785 79.2012 169.979 79.8147C169.445 80.2172 168.86 80.5571 168.237 80.8267C167.321 81.2242 166.319 81.4163 165.31 81.3879C165.123 81.3813 164.938 81.3582 164.757 81.3189L164.549 81.2775C163.468 81.036 162.422 80.673 161.435 80.1965C160.608 79.8038 159.808 79.3629 159.041 78.8763C157.634 77.9935 156.291 77.0238 155.023 75.9737C153.779 74.9663 152.624 73.9129 151.504 72.8411C150.951 72.2983 150.398 71.7555 149.87 71.1943C149.342 70.6331 148.833 70.0857 148.276 69.4463C147.653 68.6037 147.387 67.5762 147.53 66.5619C147.672 65.5476 148.212 64.6182 149.046 63.953C149.88 63.2879 150.949 62.934 152.046 62.9596C153.143 62.9853 154.191 63.3886 154.989 64.0919L155.092 64.1839Z" fill="#F2E6C1"/>
<path d="M177.234 65.9456L181.632 66.1434L180.205 60.6234C180.205 60.6234 176.114 60.904 175.457 62.8636C175.388 63.0821 175.402 63.316 175.497 63.526L176.306 65.3338C176.383 65.5073 176.51 65.6569 176.675 65.7653C176.839 65.8736 177.033 65.9361 177.234 65.9456Z" fill="#FF8B7B"/>
<path d="M185.559 62.8682L184.71 61.0282C184.544 60.6716 184.249 60.3809 183.876 60.2074C183.503 60.034 183.076 59.9891 182.671 60.0806L180.203 60.6464L181.63 66.1664L184.591 65.0532C184.811 64.9722 185.012 64.8507 185.18 64.6959C185.349 64.5411 185.482 64.3562 185.573 64.1522C185.663 63.9483 185.708 63.7295 185.706 63.5089C185.703 63.2883 185.653 63.0704 185.559 62.8682Z" fill="#FF8B7B"/>
<path d="M144.694 142.388C140.024 123.248 137.137 100.17 137.137 100.17L156.283 99.8844C156.283 99.8844 156.017 130.985 156.056 144.012C156.105 157.559 157.112 187.372 157.112 187.372H151.303C151.303 187.372 143.805 159.132 144.694 142.388Z" fill="#263238"/>
<path d="M143.202 115.98L140.172 120.166C141.075 125.391 142.146 131.146 143.395 136.786C143.918 128.119 143.829 118.05 143.202 115.98Z" fill="black"/>
<path d="M164.862 190.026C164.862 190.026 156.861 188.269 156.259 187.087H151.816L151.846 191.47H154.59L155.01 191.066L155.706 191.47C157.927 191.47 163.83 191.388 165.227 190.923C165.255 190.757 165.236 190.587 165.172 190.43C165.108 190.272 165.001 190.133 164.862 190.026Z" fill="#263238"/>
<path d="M126.883 141.85C129.099 122.599 129.03 109.738 131.73 100.252L149.164 100.009C149.164 100.009 141.903 130.543 138.532 143.249C135.16 155.954 129.39 187.363 129.39 187.363H124.01C124.01 187.363 122.317 156.736 126.883 141.85Z" fill="#263238"/>
<path d="M130.351 104.001C129.966 106.301 128.593 119.908 127.172 124.862C138.796 129.669 156.565 127.779 157.113 124.66C156.95 118.882 156.62 104.001 156.62 104.001H130.351Z" fill="white"/>
<path opacity="0.1" d="M130.996 106.527C131.808 107.753 132.788 108.874 133.913 109.862C133.913 109.862 131.406 109.443 130.996 106.527Z" fill="black"/>
<path opacity="0.1" d="M154.363 109.733C155.03 108.807 155.57 107.807 155.972 106.757C155.972 106.757 156.086 109.107 154.363 109.733Z" fill="black"/>
<path opacity="0.1" d="M131.105 108.261C131.374 109.182 131.77 110.067 132.285 110.892C131.815 110.626 131.448 110.228 131.236 109.755C131.024 109.283 130.979 108.76 131.105 108.261Z" fill="black"/>
<path d="M134.406 190.026C134.406 190.026 129.416 188.269 128.844 187.087H124.401L124.312 191.47H127.95L128.38 191.066L129.066 191.47C131.287 191.47 133.335 191.388 134.747 190.923C134.781 190.759 134.767 190.589 134.707 190.432C134.647 190.274 134.543 190.134 134.406 190.026Z" fill="#263238"/>
<path d="M131.091 61.847C137.251 61.134 146.047 61.203 151.945 62.1506C153.419 62.3996 154.772 63.0742 155.811 64.0788C156.851 65.0834 157.526 66.3673 157.74 67.7488C158.979 76.0518 157.913 90.5602 157.123 105.165C143.648 109.462 129.433 105.105 129.433 105.105C128.939 102.161 130.045 92.506 130.785 87.354C129.674 82.0318 127.33 75.9368 125.76 68.8666C125.57 68.0757 125.56 67.2563 125.73 66.4615C125.901 65.6666 126.249 64.914 126.751 64.2524C127.254 63.5907 127.9 63.0347 128.647 62.6204C129.395 62.206 130.227 61.9426 131.091 61.847Z" fill="#A61E30"/>
<path opacity="0.1" d="M131.482 61.4788C137.642 60.7658 146.438 60.8348 152.336 61.7824C153.81 62.0314 155.162 62.7059 156.202 63.7105C157.242 64.7152 157.917 65.999 158.131 67.3806C159.37 75.6836 158.303 90.192 157.514 104.797C144.039 109.093 129.823 104.737 129.823 104.737C129.33 101.793 130.435 92.1378 131.176 86.9858C130.065 81.6636 127.721 75.5686 126.151 68.4984C125.96 67.7075 125.95 66.8881 126.121 66.0932C126.292 65.2984 126.639 64.5458 127.142 63.8842C127.644 63.2225 128.29 62.6665 129.038 62.2522C129.785 61.8378 130.618 61.5743 131.482 61.4788Z" fill="#A61E30"/>
<path d="M137.185 50.8853L144.194 56.2442C143.285 58.4936 142.999 60.8442 146.958 61.732C147.945 62.951 146.464 65.09 144.707 65.9226C140.551 65.0394 138.157 63.9998 136.543 61.9344C137.051 60.3152 137.861 54.2111 137.185 50.8853Z" fill="#FF8B7B"/>
<path opacity="0.2" d="M140.107 53.1208L144.194 56.2397C143.972 56.7597 143.807 57.299 143.7 57.8497C142.116 57.9555 139.915 56.4697 139.816 55.1172C139.78 54.4407 139.879 53.7639 140.107 53.1208Z" fill="black"/>
<path d="M136.177 47.2328C136.818 51.3314 136.966 53.7602 139.39 55.683C143.038 58.5764 148.329 56.2212 149.02 52.003C149.637 48.2172 148.487 42.1498 144.01 40.8802C143.017 40.5986 141.963 40.5569 140.948 40.7589C139.933 40.961 138.989 41.4002 138.206 42.0353C137.423 42.6704 136.826 43.4805 136.471 44.3897C136.116 45.2989 136.015 46.2772 136.177 47.2328Z" fill="#FF8B7B"/>
<path d="M136.139 49.1234C136.591 49.5798 137.174 49.9047 137.82 50.059C138.465 50.2132 139.145 50.1902 139.777 49.9928C138.72 48.9946 139.747 45.3422 138.691 43.8564C140.734 44.2336 148.691 45.31 149.451 42.7386C150.275 39.9786 146.983 37.7752 145.137 37.5682C145.68 38.7182 145.631 39.5508 143.607 39.1782C141.583 38.8056 133.241 37.0116 134.164 40.6548C131.479 40.6548 131.297 44.298 133.261 46.0414C134.337 46.9686 135.302 48.002 136.139 49.1234Z" fill="#263238"/>
<path d="M134.658 40.48C133.049 40.1074 133.552 38.7274 133.913 38.5848C132.407 38.9252 131.859 40.3052 133.676 40.94C135.492 41.5748 134.658 40.48 134.658 40.48Z" fill="#263238"/>
<path d="M134.942 49.749C135.091 50.1981 135.335 50.6151 135.659 50.9759C135.982 51.3367 136.38 51.6342 136.827 51.8512C138.036 52.4262 138.915 51.4786 138.802 50.2918C138.708 49.22 137.972 47.633 136.649 47.5318C136.359 47.5183 136.069 47.573 135.806 47.6909C135.544 47.8088 135.317 47.9861 135.147 48.2067C134.977 48.4272 134.87 48.684 134.834 48.9534C134.798 49.2229 134.835 49.4964 134.942 49.749Z" fill="#FF8B7B"/>
<path d="M142.355 47.38C142.385 47.7158 142.602 47.9734 142.849 47.955C143.096 47.9366 143.253 47.6422 143.224 47.311C143.194 46.9798 142.977 46.7176 142.73 46.736C142.483 46.7544 142.326 47.0442 142.355 47.38Z" fill="#263238"/>
<path d="M146.656 47.2834C146.686 47.6192 146.903 47.8768 147.15 47.8538C147.396 47.8308 147.549 47.5456 147.52 47.2098C147.49 46.874 147.273 46.621 147.026 46.6394C146.779 46.6578 146.626 46.9476 146.656 47.2834Z" fill="#263238"/>
<path d="M145.785 47.7343C146.304 48.723 146.969 49.6395 147.759 50.4575C147.172 51.0647 146.067 50.9175 146.067 50.9175L145.785 47.7343Z" fill="#FF5652"/>
<path d="M141.688 46.3128C141.654 46.3217 141.618 46.3217 141.585 46.3128C141.558 46.3037 141.534 46.2897 141.514 46.2717C141.493 46.2536 141.477 46.2318 141.466 46.2077C141.455 46.1836 141.449 46.1577 141.449 46.1315C141.449 46.1053 141.455 46.0793 141.466 46.0552C141.585 45.7599 141.776 45.495 142.026 45.2822C142.276 45.0695 142.576 44.9151 142.902 44.8316C142.958 44.8213 143.016 44.8319 143.063 44.8612C143.11 44.8906 143.143 44.9362 143.154 44.988C143.165 45.0399 143.154 45.0937 143.122 45.1377C143.091 45.1817 143.042 45.2123 142.986 45.2226C142.728 45.2908 142.491 45.4151 142.294 45.5855C142.098 45.7558 141.948 45.9673 141.856 46.2024C141.84 46.2326 141.817 46.2585 141.787 46.2778C141.758 46.2971 141.724 46.3092 141.688 46.3128Z" fill="#263238"/>
<path d="M149.156 45.7793C149.12 45.7795 149.085 45.7711 149.054 45.755C149.023 45.7389 148.997 45.7155 148.978 45.6873C148.847 45.4722 148.662 45.2895 148.44 45.1543C148.217 45.0191 147.964 44.9353 147.7 44.9099C147.672 44.9093 147.644 44.9036 147.619 44.8931C147.593 44.8826 147.57 44.8675 147.551 44.8487C147.532 44.8299 147.517 44.8078 147.506 44.7835C147.496 44.7593 147.492 44.7335 147.492 44.7075C147.495 44.6546 147.52 44.6048 147.561 44.5687C147.603 44.5325 147.658 44.513 147.714 44.5143C148.049 44.5427 148.371 44.6452 148.654 44.8132C148.938 44.9813 149.174 45.21 149.343 45.4803C149.371 45.5251 149.38 45.5783 149.367 45.6288C149.354 45.6794 149.321 45.7233 149.274 45.7517C149.239 45.7736 149.197 45.7834 149.156 45.7793Z" fill="#263238"/>
<path d="M136.543 61.9345C136.543 61.9345 143.735 72.1189 146.469 79.3041C149.164 70.8723 149.475 64.1241 146.963 61.7321C146.153 62.6843 142.895 63.9723 136.543 61.9345Z" fill="#F2E6C1"/>
<path d="M134.091 69.46L133.395 71.3001L132.704 73.2137C132.245 74.4879 131.825 75.7667 131.435 77.0225C131.238 77.6527 131.065 78.2783 130.907 78.8947C130.749 79.5111 130.596 80.1229 130.487 80.7071C130.379 81.2913 130.295 81.8571 130.241 82.3631C130.213 82.7505 130.213 83.1394 130.241 83.5269L129.984 82.8553C129.777 82.4919 129.564 82.3953 129.555 82.3953C129.545 82.3953 129.624 82.4873 129.777 82.5885C130.236 82.841 130.725 83.0447 131.233 83.1957C132.545 83.6067 133.886 83.9356 135.246 84.1801C136.692 84.4469 138.183 84.6401 139.688 84.8701C141.193 85.1001 142.743 85.2611 144.234 85.4589H144.303C144.824 85.5283 145.301 85.7672 145.651 86.1333C146 86.4994 146.199 86.969 146.213 87.4589C146.227 87.9488 146.054 88.4273 145.725 88.8098C145.396 89.1922 144.933 89.4538 144.417 89.5483C142.808 89.8328 141.186 90.0416 139.555 90.1739C137.926 90.3119 136.282 90.3809 134.619 90.3717C132.865 90.3687 131.114 90.2256 129.387 89.9439C128.372 89.7674 127.38 89.4946 126.425 89.1297C125.789 88.8853 125.189 88.5669 124.638 88.1821C123.827 87.6236 123.168 86.8957 122.713 86.0569C122.63 85.9007 122.562 85.7374 122.511 85.5693L122.457 85.3807C122.168 84.3792 122.011 83.3491 121.988 82.3125C121.964 81.448 121.998 80.583 122.091 79.7227C122.249 78.1509 122.521 76.591 122.906 75.0537C123.256 73.5541 123.701 72.1051 124.179 70.6745C124.426 69.9615 124.673 69.2531 124.949 68.5493C125.226 67.8455 125.502 67.1692 125.843 66.4102C126.288 65.4187 127.13 64.6275 128.19 64.204C129.25 63.7805 130.446 63.7578 131.523 64.1408C132.601 64.5238 133.477 65.2824 133.965 66.2562C134.453 67.23 134.516 68.3427 134.14 69.3588L134.091 69.46Z" fill="#F2E6C1"/>
<path d="M144.935 86.0522L149.299 86.5582L146.89 91.7608C146.89 91.7608 142.907 90.8408 142.62 88.7984C142.592 88.5726 142.65 88.3447 142.783 88.1544L143.909 86.503C144.017 86.3454 144.171 86.2195 144.352 86.1397C144.534 86.06 144.736 86.0297 144.935 86.0522Z" fill="#FF8B7B"/>
<path d="M152.572 90.4084L151.397 92.1012C151.169 92.4266 150.825 92.6661 150.426 92.7773C150.026 92.8885 149.597 92.8641 149.215 92.7084L146.891 91.7608L149.299 86.5582L152.019 88.1268C152.218 88.2413 152.39 88.3916 152.526 88.5689C152.662 88.7462 152.758 88.9469 152.81 89.1594C152.861 89.3719 152.867 89.5918 152.826 89.8062C152.785 90.0207 152.699 90.2254 152.572 90.4084Z" fill="#FF8B7B"/>
<path d="M136.896 60.3521C135.979 60.4877 135.138 60.9094 134.512 61.5481C136.466 63.9788 139.252 65.7151 142.409 66.47C142.182 65.7662 142.863 63.71 143.614 62.974C140.854 62.5922 136.896 60.3521 136.896 60.3521Z" fill="#F2E6C1"/>
<path d="M144.474 60.605C145.41 60.7636 146.3 61.1037 147.086 61.6032C147.086 61.6032 149.85 64.4782 146.592 66.102C146.814 65.3982 145.111 63.5214 143.586 62.974C146.34 62.5922 144.474 60.605 144.474 60.605Z" fill="#F2E6C1"/>
<path d="M143.892 64.6116C141.711 63.5214 139.011 62.3392 139.761 64.2482C140.511 66.1572 139.519 66.8196 140.496 67.4682C141.474 68.1168 143.458 66.3366 144.114 66.0882C144.771 65.8398 143.892 64.6116 143.892 64.6116Z" fill="#A61E30"/>
<path d="M145.44 64.5978C147.103 63.5536 149.186 62.422 148.816 64.285C148.446 66.148 149.364 66.7966 148.638 67.4268C147.913 68.057 146.047 66.2952 145.455 66.0468C144.862 65.7984 145.44 64.5978 145.44 64.5978Z" fill="#A61E30"/>
<path d="M143.598 64.4644C144.091 64.1884 145.296 63.8388 145.893 64.5886C146.49 65.3384 146.298 66.5942 145.473 66.746C145.179 66.8015 144.874 66.7816 144.59 66.6885C144.307 66.5953 144.056 66.4324 143.864 66.217C144.047 65.9421 144.121 65.616 144.072 65.2957C144.023 64.9753 143.855 64.6811 143.598 64.4644Z" fill="#A61E30"/>
<path d="M129.694 187.51L123.707 187.666L123.391 184.506L130.345 184.892L129.694 187.51Z" fill="black"/>
<path d="M157.322 187.501L150.856 187.666L150.141 184.929L157.362 184.276L157.322 187.501Z" fill="black"/>
<path d="M143.233 84.9805C140.209 84.1474 137.091 83.6457 133.943 83.4855C133.272 83.5223 133.015 97.6581 133.07 103.44C133.07 104.222 142.724 104.066 145.192 103.712C145.33 102.097 145.36 90.3119 146.002 86.6273C146.051 86.339 145.995 86.0438 145.842 85.7887C145.69 85.5336 145.451 85.3332 145.163 85.2197C144.551 84.9899 143.887 84.9076 143.233 84.9805Z" fill="white"/>
<path d="M193.771 62.353H166.367V63.0798H193.771V62.353Z" fill="#EB0029"/>
<path d="M193.197 63.0798H166.938L167.944 63.5904H192.195L193.197 63.0798Z" fill="#EB0029"/>
<path opacity="0.2" d="M193.197 63.0798H166.938L167.944 63.5904H192.195L193.197 63.0798Z" fill="black"/>
<path d="M181.198 52.0859C181.199 52.2944 181.134 52.4985 181.01 52.6723C180.886 52.8462 180.71 52.9819 180.504 53.0623C180.297 53.1428 180.07 53.1643 179.85 53.1242C179.631 53.0841 179.429 52.9841 179.27 52.837C179.112 52.6898 179.004 52.5021 178.96 52.2977C178.916 52.0932 178.938 51.8812 179.023 51.6884C179.108 51.4957 179.253 51.3309 179.439 51.2149C179.625 51.099 179.844 51.0371 180.068 51.0371C180.216 51.0365 180.363 51.0631 180.5 51.1156C180.637 51.168 180.762 51.2452 180.867 51.3426C180.972 51.4401 181.055 51.5559 181.112 51.6834C181.169 51.811 181.198 51.9477 181.198 52.0859Z" fill="#EB0029"/>
<path d="M191.914 58.9812C191.153 56.7848 189.706 54.85 187.758 53.4244L188.064 53.061C190.091 54.5443 191.596 56.5576 192.388 58.8432L191.914 58.9812Z" fill="#EB0029"/>
<path d="M186.047 52.3664C185.494 52.0818 184.918 51.8373 184.324 51.635L184.492 51.2026C185.11 51.4191 185.709 51.679 186.284 51.98L186.047 52.3664Z" fill="#EB0029"/>
<path d="M180.069 52.0858C177.096 52.0858 174.245 53.1864 172.143 55.1456C170.04 57.1047 168.859 59.7618 168.859 62.5324H191.278C191.278 59.7618 190.097 57.1047 187.995 55.1456C185.893 53.1864 183.042 52.0858 180.069 52.0858Z" fill="#A61E30"/>
<path opacity="0.3" d="M170.406 61.5986H173.303C173.403 61.597 173.5 61.5631 173.576 61.5028C173.653 61.4424 173.704 61.3593 173.722 61.2674C174.305 58.4062 176.136 55.913 179.048 53.7464C179.114 53.697 179.161 53.6288 179.182 53.5522C179.203 53.4756 179.196 53.3948 179.163 53.3221C179.13 53.2493 179.073 53.1885 179 53.1489C178.926 53.1092 178.841 53.0929 178.757 53.1024C176.555 53.3733 174.507 54.3049 172.923 55.7563C171.338 57.2077 170.304 59.1002 169.976 61.1478C169.968 61.2045 169.974 61.262 169.992 61.3166C170.01 61.3711 170.04 61.4214 170.081 61.4641C170.122 61.5068 170.172 61.5409 170.228 61.5641C170.284 61.5873 170.344 61.5991 170.406 61.5986Z" fill="white"/>
<path d="M144.407 52.1134C144.638 52.1228 144.869 52.112 145.098 52.0812C145.129 52.0756 145.156 52.059 145.173 52.0348C145.191 52.0107 145.198 51.9811 145.192 51.9524C145.184 51.9224 145.164 51.8962 145.137 51.8784C145.11 51.8607 145.077 51.8527 145.044 51.8558C144.528 51.9273 144.002 51.889 143.504 51.7441C143.007 51.5991 142.551 51.3511 142.171 51.0186C142.16 51.0076 142.147 50.9988 142.132 50.9929C142.117 50.9869 142.101 50.9838 142.085 50.9838C142.068 50.9838 142.052 50.9869 142.038 50.9929C142.023 50.9988 142.009 51.0076 141.998 51.0186C141.977 51.0406 141.965 51.0693 141.965 51.0991C141.965 51.1289 141.977 51.1576 141.998 51.1796C142.651 51.7555 143.508 52.0878 144.407 52.1134Z" fill="#263238"/>
</svg>
